<svg id="svg" version="1.1" width="400" height="400" xmlns="http://www.w3.org/2000/svg" xmlns:xlink="http://www.w3.org/1999/xlink" style="display: block;"><g id="svgg">
	<path id="path0" d="M211.500 37.617 C 203.404 39.531,192.275 42.921,188.000 44.776 C 179.559 48.439,169.077 53.837,168.000 55.075 C 167.725 55.392,166.037 56.501,164.250 57.541 C 162.463 58.581,161.000 59.784,161.000 60.216 C 161.000 60.647,160.511 61.000,159.914 61.000 C 157.897 61.000,142.385 75.929,135.974 84.039 C 105.568 122.506,100.366 176.413,122.719 221.395 L 127.139 230.290 83.700 273.895 C 43.132 314.618,40.120 317.883,38.131 323.288 C 29.055 347.939,52.061 370.945,76.712 361.869 C 82.117 359.880,85.382 356.868,126.105 316.300 L 169.710 272.861 178.605 277.281 C 227.889 301.772,287.953 292.842,325.377 255.460 C 335.211 245.636,339.000 241.360,339.000 240.086 C 339.000 239.489,339.353 239.000,339.784 239.000 C 340.216 239.000,341.419 237.537,342.459 235.750 C 343.499 233.963,344.608 232.275,344.925 232.000 C 345.780 231.257,347.218 228.616,352.276 218.500 C 370.389 182.278,367.581 128.557,345.884 96.200 C 344.298 93.835,343.000 91.661,343.000 91.368 C 343.000 90.700,336.298 82.207,333.553 79.398 C 332.424 78.242,330.314 75.992,328.864 74.398 C 323.999 69.050,309.986 57.000,308.632 57.000 C 308.339 57.000,306.165 55.702,303.800 54.116 C 281.342 39.057,238.105 31.328,211.500 37.617 M250.000 74.431 C 255.225 75.183,261.525 76.562,264.000 77.497 C 274.566 81.486,278.748 83.403,282.800 86.119 C 285.165 87.703,287.299 89.000,287.543 89.000 C 289.485 89.000,311.000 110.515,311.000 112.457 C 311.000 112.701,312.301 114.835,313.891 117.200 C 323.348 131.266,328.302 154.209,325.978 173.180 C 324.589 184.518,319.758 200.141,315.749 206.260 C 314.787 207.728,314.000 209.189,314.000 209.507 C 314.000 209.825,313.538 210.628,312.972 211.292 C 312.407 211.956,310.020 215.029,307.667 218.120 C 265.380 273.673,177.857 260.612,152.737 195.000 C 137.377 154.884,150.490 115.442,188.551 87.278 C 203.012 76.576,228.249 71.300,250.000 74.431 M240.790 94.984 C 227.019 102.491,230.565 120.847,246.500 124.541 C 257.988 127.204,271.998 140.850,275.110 152.408 C 279.823 169.910,297.481 173.668,305.100 158.790 C 316.705 136.129,263.021 82.866,240.790 94.984 "
 stroke="none" fill="#000000" fill-rule="evenodd"></path></g></svg>