<svg id="svg" version="1.1" width="500" height="500" xmlns="http://www.w3.org/2000/svg" xmlns:xlink="http://www.w3.org/1999/xlink" style="display: block;"><g id="svgg"><path id="path0" d="M175.600 1.209 C 147.604 6.386,116.137 23.778,99.798 43.103 C 54.264 96.964,52.269 147.935,92.545 228.400 C 95.849 235.000,99.726 243.148,101.162 246.506 C 103.744 252.546,107.882 260.100,122.486 285.437 C 126.619 292.607,132.013 302.147,134.474 306.637 C 145.321 326.429,187.879 393.068,192.439 397.400 C 196.118 400.895,203.256 401.196,207.035 398.016 C 211.228 394.488,257.664 321.760,266.415 305.014 C 268.202 301.596,271.207 296.280,273.094 293.200 C 279.737 282.357,296.962 251.028,299.185 245.745 C 300.422 242.805,304.145 235.000,307.459 228.400 C 347.694 148.251,345.683 96.901,300.202 43.103 C 283.228 23.026,249.913 5.066,221.847 0.862 C 213.933 -0.324,182.616 -0.089,175.600 1.209 M216.800 21.714 C 271.498 29.060,315.200 78.863,315.200 133.850 C 315.200 163.666,296.971 208.615,254.955 282.400 C 236.518 314.779,201.783 370.400,200.000 370.400 C 198.217 370.400,163.482 314.779,145.045 282.400 C 96.050 196.358,80.689 153.758,85.974 118.575 C 95.382 55.937,153.151 13.166,216.800 21.714 M184.499 61.263 C 126.236 74.254,104.925 145.649,146.774 187.649 C 194.320 235.366,274.671 202.185,274.753 134.800 C 274.811 87.292,230.325 51.046,184.499 61.263 M210.997 81.266 C 252.658 89.871,269.005 140.794,240.147 172.075 C 211.191 203.463,157.824 190.269,147.148 149.083 C 136.913 109.599,171.307 73.068,210.997 81.266 " stroke="none" fill="#000000" fill-rule="evenodd"></path><path id="path1" d="M195.600 81.210 C 196.480 81.824,198.005 83.140,198.989 84.135 C 200.392 85.552,200.987 85.733,201.749 84.971 C 203.236 83.484,204.424 83.802,205.601 86.002 C 206.373 87.444,207.257 87.960,208.759 87.846 C 211.698 87.622,212.800 88.536,212.800 91.200 C 212.800 94.036,212.316 94.350,207.019 94.946 C 204.699 95.207,201.900 95.912,200.800 96.513 L 198.800 97.605 201.000 97.116 C 202.882 96.697,203.200 96.881,203.200 98.388 C 203.200 99.477,203.811 100.310,204.800 100.568 C 206.942 101.128,206.807 101.805,204.325 102.957 C 202.588 103.763,202.332 103.730,202.709 102.748 C 204.841 97.192,193.156 107.275,190.443 113.332 C 189.622 115.164,188.155 117.089,187.183 117.609 C 185.595 118.459,185.469 118.964,185.945 122.557 C 186.506 126.785,184.931 127.945,183.998 123.992 C 183.458 121.706,179.731 120.448,176.800 121.564 C 175.700 121.983,173.936 122.432,172.880 122.563 C 168.698 123.080,166.355 129.657,169.224 132.827 C 171.134 134.937,174.877 134.921,175.432 132.800 C 176.272 129.586,178.283 130.934,177.819 134.400 C 177.417 137.397,177.517 137.600,179.397 137.600 C 181.769 137.600,183.421 139.292,182.752 141.036 C 181.891 143.279,183.877 145.738,186.256 145.375 C 187.435 145.195,187.950 145.199,187.400 145.383 C 186.850 145.567,186.400 146.058,186.400 146.475 C 186.400 147.669,180.146 144.167,179.233 142.461 C 178.782 141.618,177.150 140.511,175.606 140.002 C 174.063 139.493,172.800 138.744,172.800 138.338 C 172.800 137.932,172.068 137.600,171.173 137.600 C 168.098 137.600,161.826 133.808,161.275 131.615 C 160.992 130.486,159.509 127.922,157.980 125.919 C 156.451 123.916,155.200 121.945,155.200 121.539 C 155.200 121.132,154.851 120.800,154.425 120.800 C 153.999 120.800,153.880 121.399,154.161 122.131 C 154.505 123.026,154.365 123.273,153.736 122.884 C 153.221 122.566,152.800 121.651,152.800 120.851 C 152.800 120.051,152.220 118.914,151.511 118.326 C 150.801 117.737,149.944 116.523,149.605 115.628 C 149.105 114.308,148.735 114.861,147.650 118.556 C 139.184 147.381,154.537 177.387,182.541 186.747 C 191.214 189.646,191.677 189.568,192.291 185.088 C 193.261 178.016,193.045 177.175,189.699 174.960 C 187.993 173.831,185.762 171.533,184.742 169.854 C 183.722 168.174,182.416 166.511,181.840 166.158 C 180.489 165.330,181.160 159.413,182.811 157.587 C 183.465 156.865,184.000 155.509,184.000 154.575 C 184.000 152.011,185.622 148.970,187.723 147.593 C 189.499 146.429,189.600 146.459,189.600 148.153 C 189.600 149.778,189.715 149.827,190.854 148.689 C 192.173 147.370,200.399 148.547,201.526 150.216 C 201.787 150.601,202.540 151.158,203.200 151.453 C 203.860 151.748,204.940 152.331,205.600 152.747 C 206.260 153.164,207.814 153.719,209.054 153.981 C 210.415 154.269,211.840 155.400,212.654 156.837 C 213.402 158.160,215.066 159.547,216.400 159.960 C 229.155 163.906,230.463 165.100,226.800 169.454 C 225.700 170.761,224.800 172.287,224.800 172.845 C 224.800 175.719,220.809 180.544,217.649 181.491 C 215.862 182.026,214.400 182.880,214.400 183.388 C 214.400 183.897,213.410 185.350,212.200 186.617 L 210.000 188.922 212.400 188.351 C 233.710 183.275,250.438 165.485,253.989 144.119 C 254.526 140.892,254.453 140.676,252.979 141.143 C 251.762 141.529,250.554 140.717,247.813 137.668 C 242.863 132.162,242.498 124.390,246.898 118.198 C 250.358 113.329,250.297 111.726,246.420 105.728 C 236.082 89.733,220.736 81.049,201.600 80.364 C 194.911 80.125,194.192 80.226,195.600 81.210 M185.600 81.956 C 179.663 83.628,176.000 85.446,176.000 86.722 C 176.000 87.998,180.990 89.784,182.710 89.124 C 183.875 88.677,186.113 90.980,186.517 93.042 C 186.918 95.086,188.348 94.813,188.673 92.632 C 188.823 91.624,189.422 90.260,190.004 89.600 C 191.056 88.407,190.785 80.715,189.696 80.872 C 189.423 80.911,187.580 81.399,185.600 81.956 M156.680 127.199 C 157.771 130.330,157.250 130.268,155.659 127.077 C 154.209 124.171,154.123 123.734,155.121 124.351 C 155.518 124.596,156.219 125.878,156.680 127.199 M189.600 131.200 C 191.316 132.140,191.866 132.746,191.019 132.766 C 190.260 132.785,188.460 132.081,187.019 131.203 C 183.677 129.165,185.879 129.163,189.600 131.200 M197.135 133.286 C 197.831 133.553,198.400 134.051,198.400 134.392 C 198.400 135.369,195.736 135.815,193.987 135.132 C 193.114 134.791,192.871 134.487,193.447 134.456 C 194.023 134.425,194.272 134.040,194.000 133.600 C 193.450 132.710,195.183 132.537,197.135 133.286 " stroke="none" fill="#ffffff" fill-rule="evenodd"></path><path id="path2" d="M190.650 20.831 C 131.679 25.677,84.800 75.909,84.800 134.254 C 84.800 163.633,103.249 209.001,145.045 282.400 C 163.482 314.779,198.217 370.400,200.000 370.400 C 201.783 370.400,236.518 314.779,254.955 282.400 C 296.971 208.615,315.200 163.666,315.200 133.850 C 315.200 68.611,256.575 15.413,190.650 20.831 M220.000 62.343 C 282.028 80.151,294.913 162.750,241.113 197.687 C 178.641 238.255,101.415 172.662,131.350 104.458 C 145.997 71.085,185.344 52.393,220.000 62.343 M192.097 80.644 C 190.318 80.919,190.224 81.192,190.652 84.808 C 190.981 87.584,190.797 88.939,190.003 89.598 C 189.393 90.103,188.784 91.402,188.647 92.483 C 188.343 94.903,186.929 95.381,186.528 93.200 C 186.128 91.017,183.920 88.660,182.710 89.124 C 181.027 89.770,176.123 88.026,175.854 86.686 C 175.657 85.701,174.223 86.338,169.455 89.529 C 156.425 98.250,146.453 113.704,151.126 117.933 C 152.047 118.766,152.800 120.091,152.800 120.877 C 152.800 121.663,153.221 122.566,153.736 122.884 C 154.365 123.273,154.505 123.026,154.161 122.131 C 153.880 121.399,153.999 120.800,154.425 120.800 C 154.851 120.800,155.200 121.132,155.200 121.539 C 155.200 121.945,156.451 123.916,157.980 125.919 C 159.509 127.922,160.992 130.486,161.275 131.615 C 161.826 133.808,168.098 137.600,171.173 137.600 C 172.068 137.600,172.800 137.932,172.800 138.338 C 172.800 138.744,174.063 139.493,175.606 140.002 C 177.150 140.511,178.782 141.618,179.233 142.461 C 180.146 144.167,186.400 147.669,186.400 146.475 C 186.400 146.058,186.850 145.567,187.400 145.383 C 187.950 145.199,187.435 145.195,186.256 145.375 C 183.877 145.738,181.891 143.279,182.752 141.036 C 183.421 139.292,181.769 137.600,179.397 137.600 C 177.517 137.600,177.417 137.397,177.819 134.400 C 178.283 130.934,176.272 129.586,175.432 132.800 C 174.877 134.921,171.134 134.937,169.224 132.827 C 166.355 129.657,168.698 123.080,172.880 122.563 C 173.936 122.432,175.700 121.983,176.800 121.564 C 179.731 120.448,183.458 121.706,183.998 123.992 C 184.931 127.945,186.506 126.785,185.945 122.557 C 185.469 118.964,185.595 118.459,187.183 117.609 C 188.155 117.089,189.622 115.164,190.443 113.332 C 193.156 107.275,204.841 97.192,202.709 102.748 C 202.332 103.730,202.588 103.763,204.325 102.957 C 206.807 101.805,206.942 101.128,204.800 100.568 C 203.811 100.310,203.200 99.477,203.200 98.388 C 203.200 96.881,202.882 96.697,201.000 97.116 L 198.800 97.605 200.800 96.513 C 201.900 95.912,204.699 95.207,207.019 94.946 C 212.316 94.350,212.800 94.036,212.800 91.200 C 212.800 88.536,211.698 87.622,208.759 87.846 C 207.257 87.960,206.373 87.444,205.601 86.002 C 204.416 83.788,203.242 83.487,201.703 85.000 C 200.888 85.802,200.420 85.683,199.343 84.400 C 197.255 81.912,194.187 80.322,192.097 80.644 M249.637 112.998 C 249.617 113.767,248.384 116.107,246.898 118.198 C 242.447 124.462,242.853 132.247,247.918 137.732 C 253.617 143.905,254.777 142.744,254.445 131.200 C 254.265 124.956,249.773 107.948,249.637 112.998 M154.400 124.230 C 154.400 124.815,156.910 129.600,157.217 129.600 C 157.768 129.600,155.853 124.803,155.121 124.351 C 154.725 124.106,154.400 124.052,154.400 124.230 M187.019 131.203 C 188.460 132.081,190.260 132.785,191.019 132.766 C 191.866 132.746,191.316 132.140,189.600 131.200 C 185.879 129.163,183.677 129.165,187.019 131.203 M194.000 133.600 C 194.272 134.040,194.023 134.425,193.447 134.456 C 192.871 134.487,193.114 134.791,193.987 135.132 C 195.736 135.815,198.400 135.369,198.400 134.392 C 198.400 133.666,196.382 132.800,194.687 132.800 C 194.037 132.800,193.728 133.160,194.000 133.600 M187.494 147.839 C 185.372 149.532,184.000 152.141,184.000 154.484 C 184.000 155.469,183.465 156.865,182.811 157.587 C 181.160 159.413,180.489 165.330,181.840 166.158 C 182.416 166.511,183.722 168.174,184.742 169.854 C 185.762 171.533,188.021 173.850,189.761 175.002 L 192.925 177.095 192.663 183.148 L 192.400 189.200 200.948 189.200 C 209.753 189.200,214.400 187.225,214.400 183.482 C 214.400 182.922,215.862 182.026,217.649 181.491 C 220.809 180.544,224.800 175.719,224.800 172.845 C 224.800 172.287,225.700 170.761,226.800 169.454 C 230.463 165.100,229.155 163.906,216.400 159.960 C 215.066 159.547,213.402 158.160,212.654 156.837 C 211.840 155.400,210.415 154.269,209.054 153.981 C 207.814 153.719,206.260 153.164,205.600 152.747 C 204.940 152.331,203.860 151.748,203.200 151.453 C 202.540 151.158,201.787 150.601,201.526 150.216 C 200.445 148.615,192.081 147.339,191.023 148.613 C 190.158 149.655,189.974 149.594,189.614 148.145 C 189.219 146.554,189.121 146.540,187.494 147.839 " stroke="none" fill="#ff0000" fill-rule="evenodd"></path></g></svg>